<?xml version="1.0" encoding="UTF-8" standalone="no"?>
<!-- Created with Inkscape (http://www.inkscape.org/) -->

<svg
   xmlns:dc="http://purl.org/dc/elements/1.1/"
   xmlns:cc="http://creativecommons.org/ns#"
   xmlns:rdf="http://www.w3.org/1999/02/22-rdf-syntax-ns#"
   xmlns:svg="http://www.w3.org/2000/svg"
   xmlns="http://www.w3.org/2000/svg"
   xmlns:sodipodi="http://sodipodi.sourceforge.net/DTD/sodipodi-0.dtd"
   xmlns:inkscape="http://www.inkscape.org/namespaces/inkscape"
   version="1.1"
   id="svg866"
   width="716.53485"
   height="664.54138"
   viewBox="0 0 716.53485 664.54138"
   sodipodi:docname="three.svg"
   inkscape:version="0.92.5 (2060ec1f9f, 2020-04-08)">
  <metadata
     id="metadata872">
    <rdf:RDF>
      <cc:Work
         rdf:about="">
        <dc:format>image/svg+xml</dc:format>
        <dc:type
           rdf:resource="http://purl.org/dc/dcmitype/StillImage" />
        <dc:title />
      </cc:Work>
    </rdf:RDF>
  </metadata>
  <defs
     id="defs870" />
  <sodipodi:namedview
     pagecolor="#ffffff"
     bordercolor="#666666"
     borderopacity="1"
     objecttolerance="10"
     gridtolerance="10"
     guidetolerance="10"
     inkscape:pageopacity="0"
     inkscape:pageshadow="2"
     inkscape:window-width="1862"
     inkscape:window-height="1016"
     id="namedview868"
     showgrid="false"
     inkscape:zoom="0.61546202"
     inkscape:cx="202.65087"
     inkscape:cy="363.85204"
     inkscape:window-x="58"
     inkscape:window-y="27"
     inkscape:window-maximized="1"
     inkscape:current-layer="svg866" />
  <path
     style="fill:none;stroke:#ffffff;stroke-width:22.76409531;stroke-linecap:butt;stroke-linejoin:round;stroke-miterlimit:4;stroke-dasharray:none;stroke-opacity:1"
     d="m 190.65377,91.544723 c 0,0 34.5051,-31.14826 97.00488,-30.47114 62.49978,0.67714 86.14782,40.464477 90.05406,47.912977 3.90624,7.4485 26.02245,44.21923 -18.43974,105.79699 -41.37335,57.29988 -53.38519,71.77646 -53.38519,124.59311 0,52.81662 42.31753,90.05915 42.31753,90.05915 0,0 51.8114,44.0774 35.15611,104.279 C 361.74379,611.8531 262.84507,600.05977 231.82245,586.3067 196.0437,570.44513 153.23831,542.84497 132.29,488.28561 c -6.01252,-14.92218 -17.80783,-69.00687 4.97858,-102.86369 22.78634,-33.85682 51.43212,-42.6596 82.68198,-38.59677 31.24989,4.06282 63.84019,25.62849 85.3245,26.30561 21.4843,0.67717 57.90415,6.87408 77.43533,-7.34581 19.53119,-14.21985 23.43743,-23.02263 31.24987,-31.14826 7.81249,-8.12563 36.44365,-62.93299 46.87485,-77.87068 14.76154,-21.13882 16.04798,-25.73243 40.36445,-33.85682 14.33225,-4.78856 41.66646,-3.38568 50.78105,2.03141 9.76557,4.06282 35.15612,26.40832 41.6665,37.2425 6.51041,10.83418 21.48431,38.59677 21.48431,60.26514 0,21.66837 -6.51039,58.91085 -21.48431,79.90211 -14.9739,20.99121 -35.80713,33.17965 -47.52586,35.88823 -11.7187,2.70854 -42.31753,5.41708 -57.94246,-7.44853 -15.62499,-12.86556 -38.41133,-42.6596 -44.27071,-53.49374 -5.85937,-10.83419 -30.77115,-53.39256 -46.51101,-71.09934 -16.60156,-13.97285 -39.92403,-19.59676 -51.681,-20.35575 -16.90537,-1.09135 -48.34928,2.42132 -60.068,7.16128 -11.71869,4.73995 -46.16631,19.28869 -61.14023,18.61156 -14.97391,-0.67714 -53.38524,0.67713 -74.86951,-19.63696 -21.4843,-20.31409 -34.4995,-60.4062 -20.83327,-111.05037 6.58345,-24.39685 32.55196,-71.09932 61.84871,-89.382007 z"
     id="path876"
     inkscape:connector-curvature="0"
     sodipodi:nodetypes="csssscsscsscccsscsscccccscscsc" />
</svg>
